<svg xmlns:xlink="http://www.w3.org/1999/xlink" xmlns="http://www.w3.org/2000/svg" width="null" height="null" viewBox="0 0 36 36"><title>SVG/info</title><g id="info" stroke="none" stroke-width="1" fill="none" fill-rule="evenodd"><path d="M18.0390519,6 C24.6665664,6.02140395 30.0207383,11.4103844 30.0002367,18.0380117 C29.979138,24.6640391 24.5884325,30.0207534 17.963318,30.0002521 C11.3366035,29.9778208 5.97949822,24.5899069 6,17.961213 C6.02109852,11.3335856 11.4120707,5.97820464 18.0390519,6 Z M18.0342379,7.50000899 C12.2353429,7.48093712 7.51846745,12.1671119 7.50000755,17.965879 C7.48207118,23.7651168 12.1687429,28.4806142 17.9679865,28.5002446 C23.7648908,28.518183 28.4817691,23.8307169 28.5002292,18.0333449 C28.5178731,12.3289744 23.9855468,7.67362406 18.318519,7.50481199 L18.0342379,7.50000899 Z M21.0001183,15.5001338 L18.4429458,23.6896626 L18.3932446,23.8577581 C18.2850066,24.2323437 18.2308875,24.4834671 18.2308875,24.6111286 C18.2308875,24.6955963 18.2683096,24.7743048 18.3431537,24.8472542 C18.4179977,24.9202036 18.4969998,24.9566783 18.5801599,24.9566783 C18.721532,24.9566783 18.8629042,24.8990867 19.0042763,24.7839034 C19.3369167,24.5313535 19.728693,24.0967856 20.1796055,23.4801997 L20.3514697,23.2404479 L20.7755861,23.4708144 L20.6113489,23.728507 C19.4036569,25.5762582 18.1236834,26.5001338 16.7714281,26.5001338 C16.2308875,26.5001338 15.8005341,26.3599942 15.4803678,26.079715 C15.1602015,25.7994357 15.0001183,25.4442874 15.0001183,25.0142699 C15.0001183,24.7775044 15.0492059,24.4874132 15.147381,24.1439965 L15.2121765,23.9315474 L17.0045362,18.2332163 C17.1318751,17.7981595 17.1955445,17.4630483 17.1955445,17.2278825 C17.1955445,17.0589471 17.1165424,16.9092088 16.9585383,16.7786678 C16.8005341,16.6481268 16.5843179,16.5828563 16.3098896,16.5828563 L16.0271453,16.5879756 L16.0271453,16.5879756 L15.8608252,16.5943746 L16.0229873,16.1336417 L20.2516776,15.5001338 L21.0001183,15.5001338 Z M19.9932924,9.5001338 C20.55757,9.5001338 21.0331104,9.69514514 21.4199135,10.0851678 C21.8067167,10.4751905 22.0001183,10.9468458 22.0001183,11.5001338 C22.0001183,12.0534218 21.8044414,12.5250771 21.4130876,12.9150998 C21.0217338,13.3051225 20.5484687,13.5001338 19.9932924,13.5001338 C19.4472173,13.5001338 18.9785028,13.3051225 18.587149,12.9150998 C18.1957952,12.5250771 18.0001183,12.0534218 18.0001183,11.5001338 C18.0001183,10.9468458 18.1935199,10.4751905 18.5803231,10.0851678 C18.9671263,9.69514514 19.438116,9.5001338 19.9932924,9.5001338 Z" id="Shape" fill="#000000" fill-rule="nonzero"></path></g></svg>