<svg xmlns:xlink="http://www.w3.org/1999/xlink" xmlns="http://www.w3.org/2000/svg" height="null" viewBox="0 0 102 48" width="null"><path d="m45.8376629 25c4.5896565 0 6.8247927 2.5681752 6.8247927 6.2144727 0 1.9973743-.9538097 3.5509067-2.4439005 4.3435428v.126959c1.8776154 1.0146428 2.8014212 2.790182 2.8014212 5.009563 0 1.0599363-.1485985 1.9930851-.4491117 2.7977308l1.4291354.8132241c-.9149625 2.4405299-3.2352152 3.6945076-7.0880379 3.6945076h-7.4803v-11.9751527l-1.4316621-.8145966v-10.2102507zm-23.8658289 0 7.1295433 1.3377843 4.8986227 6.1522732-.0198463 8.0135755-4.9292055 6.1253299-7.5318378 1.3710371-6.610611-4.0249488-1.9084994-5.541616 2.4272689.231064 1.2852927 3.7323245.3359232.2044619.62158-3.3326092 4.0776035-1.5272398c.2414093-.0728151 2.4558997-.8470076 1.9195613-4.4737759-.2728055-1.8439085.0346497-3.3791631.9132556-4.5631321.210013-.2829043.4401977-.5262463.6793295-.7359945l-2.4378428-.457524-.8503005-2.5094754zm43.3901577 0 6.6380083 23h-5.2026454l-1.1961877-4.5015819h-5.2026454l-1.1960319 4.5015819h-5.2024896l6.6376967-23zm12.2481537 0 .0752212.1955348 3.4004425 7.2835874 3.4917826-7.4791222h5.4224083l-10.7378319 23h-5.4225663l4.449273-9.5298409-6.2888748-13.4701591zm-46.8517638 7.0311694c-.358535.1718912-.7499303.436208-1.0474623.843256-.4818424.659769-.6376847 1.5923811-.4632974 2.7722575.6786787 4.5888816-1.9582779 6.6074097-3.4940895 7.0545315l-2.7586373 1.0364632-.317541 1.7022005 5.2039631-.947448 3.8928051-4.8373395.0156168-6.3285981zm-2.4438617-3.069145.0027654.0313769c-.0039041.0001706-1.2823645.1584196-2.0046401 1.1469647-.482005.6597689-.6378474 1.5925516-.4632974 2.7725985.6786787 4.5890522-1.9582779 6.6074098-3.4942522 7.0541905l-2.7586373 1.0364631-.5273913 2.8278493 1.4891241.9066921.5101478-2.7357647 4.0776035-1.5268988c.2414093-.072815 2.4560624-.8470076 1.9195613-4.474117-.2726428-1.8437379.0346497-3.3789925.9134183-4.563132.3979023-.5359664.8686828-.9305659 1.3345831-1.2216555zm17.0167079 9.0373788h-2.4121595l1.3988156.7957243.0012634.0101224v4.6925085h2.2352941c1.7032767 0 2.6433478-.4332047 2.8254244-1.8124258l-1.4303988-.8139103c.0211607-.1626448.0341098-.3357552.0341098-.525679 0-1.7753676-.9536518-2.3463401-2.652349-2.3463401zm17.7284491-5.8694015h-.1195097l-1.5548726 6.670101h3.229255zm-17.4601506-2.6275886h-2.712199v4.2169269h2.712199c1.4899328 0 2.0562179-.7293281 2.0562179-2.0927651 0-1.3951768-.5662851-2.1241618-2.0562179-2.1241618zm-36.35957342-29.5024131c2.40541862 0 4.16200612.6981014 5.28950132 1.88033399l-1.3989027 1.13083861c1.0120873 1.06933717 1.5125596 2.53183819 1.5125596 4.23263592 0 1.96958817-.952712 3.50147108-2.4407573 4.28300198v.1250587c1.8751791 1.0002979 2.7976462 2.7509478 2.7976462 4.939303 0 4.2204726-2.4106716 6.4088278-7.52968768 6.4088278h-7.47031232v-9.466769l1.41275164-1.1322091v-12.4010219zm80.37019252 0 .0752212.19553484 3.4004425 7.28358732 3.4917826-7.47912216h5.4224083l-10.7378319 23h-5.4225663l4.449115-9.5298409-6.2887168-13.4701591zm-60.6101454 0v4.66578326h-7.4432657v4.27146037h7.4432657v4.66578327h-7.4432657v4.7311898h7.4432657v4.6657833h-12v-23zm12.3619917 0 6.6380083 23h-5.2026454l-1.1961877-4.5015819h-5.2026454l-1.1960319 4.5015819h-5.2024896l6.6376967-23zm12.7261584 0v14.748447c0 2.1441883.6130379 3.5409748 2.9118499 3.5409748s2.9118499-1.3967865 2.9118499-3.5409748v-14.748447h5.0881501v15.0409748c0 5.0352706-2.6973345 7.9590252-8 7.9590252s-8-2.9237546-8-7.9590252v-15.0409748zm28.9118499 0v4.99435714h-5.4744515v18.00564286h-5.0208348v-18.00564286h-5.5047137v-4.99435714zm-75.67852405 13.9339327h-2.44059811v4.6266563h2.23238637c1.90478717 0 2.85702158-.5314136 2.85702158-2.3132425 0-1.7506499-.95223441-2.3134138-2.64880984-2.3134138zm31.73820095-6.80393099h-.1195097l-1.5548726 6.67010099h3.229255zm-30.05754384-2.69093336h-2.70850358v4.09233039l-1.41275164 1.14077478v.04128649h2.70850357c1.48804534 0 2.05362355-.71900162 2.05362355-2.0631252 0-.6527034-.12941601-1.15567904-.42215407-1.50601459l1.40431491-1.1255279c-.3248931-.38185719-.8473326-.57972397-1.62303274-.57972397z" fill-rule="evenodd"></path></svg>