<?xml version="1.0" encoding="utf-8"?>
<!-- Generator: Adobe Illustrator 25.2.0, SVG Export Plug-In . SVG Version: 6.00 Build 0)  -->
<svg version="1.1" id="Calque_6" xmlns="http://www.w3.org/2000/svg" xmlns:xlink="http://www.w3.org/1999/xlink" x="0px" y="0px"
	 viewBox="0 0 595.3 841.9" style="enable-background:new 0 0 595.3 841.9;" xml:space="preserve">
<style type="text/css">
	.st0{fill-rule:evenodd;clip-rule:evenodd;}
	.st1{fill-rule:evenodd;clip-rule:evenodd;fill:#FFFFFF;}
	.st2{fill:none;}
</style>
<g>
	<path class="st0" d="M185.9,155.2L185.9,155.2l3.7,0.7l2.6,3.2l0,4.2l-2.6,3.2l-3.9,0.7l-3.4-2.1l-1-2.9l1.3,0.1l0.7,1.9l0.2,0.1
		l0.3-1.7l2.1-0.8c0.1,0,1.3-0.4,1-2.3c-0.1-1,0-1.8,0.5-2.4c0.1-0.1,0.2-0.3,0.4-0.4l-1.3-0.2L185.9,155.2"/>
	<path class="st1" d="M190.5,158.9c-0.2,0.1-0.4,0.2-0.5,0.4c-0.3,0.3-0.3,0.8-0.2,1.4c0.4,2.4-1,3.4-1.8,3.7l-1.4,0.5l-0.2,0.9
		l2.7-0.5l2-2.5l0-3.3L190.5,158.9z"/>
	<path class="st1" d="M189.2,157.3L189.2,157.3c0,0-0.7,0.1-1,0.6c-0.3,0.3-0.3,0.8-0.2,1.4c0.4,2.4-1,3.4-1.8,3.7l-1.4,0.5
		l-0.3,1.5l0.8,0.5l0.3-1.4l2.1-0.8c0.1,0,1.3-0.4,1-2.3c-0.1-1,0-1.8,0.5-2.4c0.2-0.3,0.5-0.5,0.7-0.6L189.2,157.3z"/>
</g>
<path d="M190.4,154L190,152h-2.7l-0.4,2.1H184l2.6-12.5h4.2l2.7,12.5H190.4z M189.6,149.8l-0.9-5l-0.9,5H189.6z"/>
<path d="M197.5,141.5V154h-3.3v-12.5H197.5z"/>
<path d="M198.9,154v-12.5h5c1.3,0,2.3,0.2,2.9,0.7c0.6,0.5,0.9,1.3,0.9,2.4v6.3c0,1.1-0.3,1.9-0.9,2.4s-1.6,0.7-2.9,0.7H198.9z
	 M202.2,143.6v8.3h0.9c0.4,0,0.8-0.1,1-0.3c0.2-0.2,0.3-0.5,0.3-1v-5.8c0-0.4-0.1-0.8-0.3-0.9c-0.2-0.2-0.5-0.3-0.9-0.3H202.2z"/>
<path d="M209.1,141.5h8v2.3h-4.8v2.6h4.8l-1.3,2.3h-3.5v3h2L213,154h-3.9V141.5z"/>
<path d="M206.6,167.4h-3.3v-12.3h3.3v5.3l2.6-5.3h3.3l-2.9,5.7l3.1,6.7h-3.4l-2.7-5.8V167.4z"/>
<g>
	<path class="st2" d="M174.8,145.3c0,1.3,0,2.5,0,3.4v2.1l1.1-0.8l-0.4-1.4C175.2,147.1,175,146,174.8,145.3z"/>
	<path class="st2" d="M177.9,148.7L177.9,148.7C177.8,148.7,177.8,148.8,177.9,148.7C177.9,148.7,177.9,148.7,177.9,148.7z"/>
	<path class="st2" d="M180.3,147l0.4-0.3c0-0.6,0-1.1,0-1.4C180.6,145.8,180.5,146.4,180.3,147z"/>
	<polygon points="172.1,153.8 174.9,153.8 174.9,150.8 172.1,152.7 	"/>
	<path d="M177.9,145.6l-1-4.1h-4.1v10.8l2.8-1.9v-2.1c0-0.9,0-2.1,0-3.4c0.2,0.8,0.4,1.9,0.8,3.3l0.4,1.4l1.8-1.3
		C178.5,147.8,178.3,146.9,177.9,145.6z"/>
	<path d="M184.2,141.5h-4l-1,4.1c-0.2,1-0.4,1.9-0.6,2.6l2.5-1.7c0.2-0.6,0.3-1.2,0.4-1.6c0,0.3,0,0.8,0,1.4l2.8-2V141.5z"/>
	<path d="M180.7,146.7c0,0.5,0,1.1,0,1.8v5.3h2.8v-9.1L180.7,146.7z"/>
	<path d="M177.8,148.8C177.8,148.8,177.8,148.7,177.8,148.8L176,150l1,3.9h1.5l1.4-5.3c0.1-0.6,0.3-1.1,0.4-1.6L177.8,148.8
		C177.9,148.7,177.9,148.7,177.8,148.8z"/>
</g>
<g>
	<polygon class="st2" points="198,163.4 199.9,163.4 199.8,163 198.2,162.1 	"/>
	<polygon class="st2" points="198.2,162.1 199.8,163 198.9,158.7 	"/>
	<polygon points="199.8,163 199.9,163.4 198,163.4 198.2,162.1 195.8,160.7 194.3,167.4 197.2,167.4 197.6,165.4 200.3,165.4 
		200.7,167.4 203.8,167.4 203.3,165 	"/>
	<polygon points="198.2,158.2 199.1,162.6 202.6,164.6 200.4,155 196.1,155 195,160.3 197.5,161.7 	"/>
</g>
</svg>
