<?xml version="1.0" encoding="utf-8"?>
<!-- Generator: Adobe Illustrator 25.2.0, SVG Export Plug-In . SVG Version: 6.00 Build 0)  -->
<svg version="1.1" id="Calque_1" xmlns="http://www.w3.org/2000/svg" xmlns:xlink="http://www.w3.org/1999/xlink" x="0px" y="0px"
	 viewBox="0 0 86.3 50" style="enable-background:new 0 0 86.3 50;" xml:space="preserve">
<style type="text/css">
	.st0{fill-rule:evenodd;clip-rule:evenodd;fill:#08090A;}
	.st1{fill-rule:evenodd;clip-rule:evenodd;fill:#FFFFFF;}
	.st2{fill:#08090A;}
	.st3{fill:none;}
</style>
<g>
	<path class="st0" d="M25.6,26.5L25.6,26.5l7.1,1.3l4.9,6.1l0,7.9L32.7,48l-7.5,1.4l-6.6-4l-1.9-5.5l2.4,0.2l1.3,3.7l0.3,0.2
		l0.6-3.3l4-1.5c0.2-0.1,2.4-0.8,1.9-4.4c-0.3-1.8,0-3.4,0.9-4.5c0.2-0.3,0.4-0.5,0.7-0.7L26.5,29L25.6,26.5"/>
	<path class="st1" d="M34.4,33.5c-0.4,0.2-0.7,0.4-1,0.8c-0.5,0.7-0.6,1.6-0.5,2.7c0.7,4.6-1.9,6.6-3.5,7l-2.7,1l-0.3,1.7l5.2-0.9
		l3.9-4.8l0-6.3L34.4,33.5z"/>
	<path class="st1" d="M31.9,30.4L31.9,30.4c0,0-1.3,0.2-2,1.2c-0.5,0.7-0.6,1.6-0.5,2.8c0.7,4.6-1.9,6.6-3.5,7l-2.7,1l-0.5,2.8
		l1.5,0.9l0.5-2.7l4-1.5c0.2-0.1,2.4-0.8,1.9-4.4c-0.3-1.8,0-3.4,0.9-4.5c0.4-0.5,0.9-0.9,1.3-1.2L31.9,30.4z"/>
</g>
<path class="st2" d="M35.1,24.2l-0.8-4h-5.1l-0.8,4H23l4.9-23.9H36l5.2,23.9H35.1z M33.6,16.2l-1.8-9.5L30,16.2H33.6z"/>
<path class="st2" d="M48.8,0.3v23.9h-6.3V0.3H48.8z"/>
<path class="st2" d="M51.3,24.2V0.3H61c2.5,0,4.4,0.5,5.5,1.4c1.1,0.9,1.7,2.4,1.7,4.5v12c0,2.1-0.6,3.6-1.7,4.5s-3,1.4-5.5,1.4
	H51.3z M57.7,4.3v15.8h1.7c0.8,0,1.5-0.2,1.8-0.6c0.4-0.4,0.5-1,0.5-1.8V6.6c0-0.8-0.2-1.4-0.5-1.8c-0.3-0.4-0.9-0.5-1.8-0.5H57.7z"
	/>
<path class="st2" d="M70.7,0.3h15.1v4.3h-9.1v5h9.1l-2.4,4.4h-6.7v5.7h3.8l-2.3,4.4h-7.5V0.3z"/>
<path class="st2" d="M66,49.6h-6.2V26.2H66v10l5-10h6.2l-5.5,10.8l5.9,12.7h-6.5l-5.2-11V49.6z"/>
<g>
	<path class="st3" d="M5.5,7.5c0.1,2.5,0.1,4.7,0.1,6.4V18l2.2-1.5l-0.7-2.7C6.3,11.1,5.8,9,5.5,7.5z"/>
	<path class="st3" d="M11.3,14L11.3,14c0,0.1,0,0.1,0,0.2C11.3,14.1,11.3,14.1,11.3,14z"/>
	<path class="st3" d="M16,10.7l0.7-0.5c0-1.1,0-2,0.1-2.6C16.6,8.5,16.3,9.6,16,10.7z"/>
	<polygon class="st2" points="0.3,23.8 5.6,23.8 5.6,18 0.3,21.7 	"/>
	<path class="st2" d="M11.5,8.2l-2-7.9H1.6v20.6l5.3-3.7v-4.1c0-1.8,0-3.9-0.1-6.4c0.3,1.5,0.8,3.6,1.6,6.4l0.7,2.7l3.5-2.4
		C12.4,12.2,12.1,10.6,11.5,8.2z"/>
	<path class="st2" d="M23.5,0.3h-7.7l-2,7.9c-0.5,1.9-0.8,3.6-1.1,5l4.7-3.3c0.3-1.2,0.6-2.2,0.8-3.1c0,0.6,0,1.5-0.1,2.6l5.4-3.7
		V0.3z"/>
	<path class="st2" d="M16.8,10.2c0,1,0,2.1,0,3.5v10.1h5.4V6.5L16.8,10.2z"/>
	<path class="st2" d="M11.3,14.2c0,0,0-0.1,0-0.1l-3.5,2.4l1.9,7.3h2.9l2.7-10.1c0.3-1.1,0.5-2.1,0.8-3L11.3,14
		C11.3,14.1,11.3,14.1,11.3,14.2z"/>
</g>
<g>
	<polygon class="st3" points="47.6,42.1 51.2,42.1 51.1,41.3 48.1,39.6 	"/>
	<polygon class="st3" points="48.1,39.6 51.1,41.3 49.4,33 	"/>
	<polygon class="st2" points="51.1,41.3 51.2,42.1 47.6,42.1 48.1,39.6 43.4,36.9 40.6,49.7 46.1,49.7 46.9,45.9 52,45.9 52.7,49.7 
		58.8,49.7 57.7,45.1 	"/>
	<polygon class="st2" points="48,32.2 49.7,40.5 56.3,44.3 52.1,26.1 44.1,26.1 42,36.1 46.7,38.8 	"/>
</g>
</svg>
