<svg xmlns:xlink="http://www.w3.org/1999/xlink" xmlns="http://www.w3.org/2000/svg" height="null" viewBox="0 0 36 36" width="null"><path d="m17.5755724 18.75c-2.6923882 0-4.875-2.1826118-4.875-4.875s2.1826118-4.875 4.875-4.875c2.6923881 0 4.875 2.1826118 4.875 4.875s-2.1826119 4.875-4.875 4.875zm0-1.5c1.863961 0 3.375-1.511039 3.375-3.375s-1.511039-3.375-3.375-3.375c-1.8639611 0-3.375 1.511039-3.375 3.375s1.5110389 3.375 3.375 3.375zm3.3755709 3.75h-6.0030605c-1.939053-.0071271-3.7718992.7983132-5.03008929 2.1843787l.32594069.4058767 2.7334353 3.4097446h9.9464058l2.7338349-3.4102428.3255397-.4053771c-1.2580369-1.3858721-3.0907848-2.1912896-5.0320066-2.1843801zm6.5842085 2.6471141-.7077829.8813637-3.1837865 3.9715171h-11.3864201l-.2251756-.2808837-2.95821109-3.6901352-1.07397561-1.3373643.35211493-.4661565c1.53855701-2.0368588 3.99443067-3.2350439 6.59874287-3.2254603h5.9975939c2.6067565-.0092924 5.0622156 1.1888613 6.6005779 3.22546l.3521153.4661566z"></path></svg>