<svg xmlns:xlink="http://www.w3.org/1999/xlink" xmlns="http://www.w3.org/2000/svg" width="null" height="null" viewBox="0 0 104 20"><title>SVG/review-stars-empty</title><g id="review-stars-empty" stroke="none" stroke-width="1" fill="none" fill-rule="evenodd"><g id="star-filled" transform="translate(-3.000000, -2.000000)" fill="#F3F2F4"><polygon id="Path" points="13 18.537037 7.05659259 21.6618519 8.19192593 15.0434074 3.38385185 10.3566667 10.0282963 9.39177778 13 3.37037037 15.9717037 9.39177778 22.6161481 10.3566667 17.8080741 15.0434074 18.9434074 21.6618519" fill="#F3F2F4"></polygon></g><g id="star-filled" transform="translate(18.000000, -2.000000)" fill="#F3F2F4"><polygon id="Path" points="13 18.537037 7.05659259 21.6618519 8.19192593 15.0434074 3.38385185 10.3566667 10.0282963 9.39177778 13 3.37037037 15.9717037 9.39177778 22.6161481 10.3566667 17.8080741 15.0434074 18.9434074 21.6618519" fill="#F3F2F4"></polygon></g><g id="star-filled" transform="translate(39.000000, -2.000000)" fill="#F3F2F4"><polygon id="Path" points="13 18.537037 7.05659259 21.6618519 8.19192593 15.0434074 3.38385185 10.3566667 10.0282963 9.39177778 13 3.37037037 15.9717037 9.39177778 22.6161481 10.3566667 17.8080741 15.0434074 18.9434074 21.6618519" fill="#F3F2F4"></polygon></g><g id="star-filled" transform="translate(60.000000, -2.000000)" fill="#F3F2F4"><polygon id="Path" points="13 18.537037 7.05659259 21.6618519 8.19192593 15.0434074 3.38385185 10.3566667 10.0282963 9.39177778 13 3.37037037 15.9717037 9.39177778 22.6161481 10.3566667 17.8080741 15.0434074 18.9434074 21.6618519" fill="#F3F2F4"></polygon></g><g id="star-filled" transform="translate(81.000000, -2.000000)" fill="#F3F2F4"><polygon id="Path" points="13 18.537037 7.05659259 21.6618519 8.19192593 15.0434074 3.38385185 10.3566667 10.0282963 9.39177778 13 3.37037037 15.9717037 9.39177778 22.6161481 10.3566667 17.8080741 15.0434074 18.9434074 21.6618519" fill="#F3F2F4"></polygon></g></g></svg>