<svg xmlns:xlink="http://www.w3.org/1999/xlink" xmlns="http://www.w3.org/2000/svg" height="null" viewBox="0 0 36 36" width="null"><path d="m21.9023438 30.1835938c1.3945312 0 2.6132812-.0820313 3.4101562-.28125 1.5585938-.3867188 2.53125-1.4765626 2.53125-2.8476563 0-.28125-.046875-.5390625-.1289062-.7851563.7617187-.5742187 1.2070312-1.4296874 1.2070312-2.3554687 0-.4570313-.09375-.9023437-.2578125-1.265625.515625-.5273437.8203125-1.3007813.8203125-2.109375 0-.5273437-.140625-1.078125-.375-1.4882813.328125-.4570312.515625-1.078125.515625-1.7578124 0-1.6875-1.3125-3-2.9765625-3h-4.2070313c-.2695312 0-.4335937-.1289063-.4335937-.3515626.0351563-1.21875 1.8867187-3.9960937 1.8867187-6.2460937 0-1.55859375-1.0898437-2.6953125-2.5898437-2.6953125-1.1132813 0-1.8515625.57421875-2.5898437 1.96875-1.359375 2.625-3 4.9453125-5.5898438 8.109375h-2.1210938c-2.7773437 0-5.0039062 3.1171875-5.0039062 6.9609375 0 3.7851563 2.4375 6.9257813 5.4257812 6.9257813h3.7148438c1.4648438.7617187 3.2460938 1.21875 5.2148438 1.21875zm.0117187-1.7578126-1.546875-.0117187c-4.640625-.0351563-7.8046875-2.671875-7.8046875-6.4335937 0-2.390625.5390625-3.9257813 2.0507812-5.9414063 1.6757813-2.2382813 3.9960938-4.9335937 5.671875-8.26171875.4335938-.8671875.6679688-1.01953125 1.0195313-1.01953125.5273437 0 .84375.328125.84375.9375 0 1.8046875-1.8984375 4.5351563-1.8984375 6.2929687 0 1.265625 1.0546875 2.0507813 2.4023438 2.0507813h3.9726562c.7148438 0 1.2421875.5507813 1.2421875 1.2773437 0 .5039063-.1640625.84375-.5859375 1.2421876-.1289062.1289062-.1875.2578124-.1875.3984374 0 .1171876.0351562.2226563.1289062.328125.3515626.5039063.5039063.8320313.5039063 1.2539063 0 .515625-.2460937.9492187-.7382813 1.3242187-.2226562.1640626-.3515624.3632813-.3515624.5625 0 .0820313.0351562.1757813.0820312.2578126.3046875.5859374.4335938.8320312.4335938 1.2304687 0 .5859375-.3632813 1.0195313-1.1484376 1.4296875-.1757812.09375-.2929687.2460938-.2929687.4335938 0 .0703124.0234375.1523437.0703125.2460937.2578125.6445313.2929688.75.2929688 1.03125 0 .5273437-.3867188.9492187-1.1953126 1.1484375-.65625.1640625-1.6992187.2460938-2.9648437.2226562zm-9.0234375-1.2070312h-1.453125c-1.96875 0-3.69140625-2.34375-3.69140625-5.1796875 0-2.8828125 1.546875-5.2148437 3.28125005-5.2148437h.9726562c-.8320312 1.5585937-1.1835938 3.1875-1.1835938 5.1328124 0 2.0742188.75 3.890625 2.0742188 5.2617188z" fill="#BABABA"></path></svg>