<svg xmlns:xlink="http://www.w3.org/1999/xlink" xmlns="http://www.w3.org/2000/svg" height="null" viewBox="0 0 36 36" width="null"><path d="m14.3203125 30.1953125c1.1132813 0 1.8632813-.5859375 2.5898437-1.9804687 1.359375-2.625 3-4.9335938 5.5898438-8.109375h2.1210938c2.7773437 0 5.0039062-3.1171876 5.0039062-6.9609376 0-3.7851562-2.4375-6.91406245-5.4257812-6.91406245h-3.7148438c-1.4648438-.76171875-3.234375-1.23046875-5.2148438-1.23046875h-1.546875c-1.3945312 0-2.6015624.09375-3.3984374.28125-1.57031255.38671875-2.53125005 1.4765625-2.53125005 2.859375 0 .26953125.03515625.52734375.1171875.78515625-.76171875.57421875-1.20703125 1.41796875-1.20703125 2.35546875 0 .4570312.09375.890625.2578125 1.265625-.515625.5273438-.8203125 1.3007812-.8203125 2.0976562 0 .5390626.140625 1.078125.375 1.4882813-.328125.4570313-.515625 1.078125-.515625 1.7578125 0 1.6875 1.3125 3.0117188 2.9765625 3.0117188h4.21875c.2578125 0 .421875.1171874.421875.3515624-.0351563 1.2070313-1.8867187 3.9960938-1.8867187 6.2460938 0 1.5585938 1.0898437 2.6953125 2.5898437 2.6953125zm0-1.7578125c-.5273437 0-.84375-.3398438-.84375-.9375 0-1.8046875 1.8984375-4.5351562 1.8984375-6.2929688 0-1.2773437-1.0546875-2.0625-2.390625-2.0625h-3.984375c-.71484375 0-1.2421875-.5390624-1.2421875-1.265625 0-.515625.1640625-.84375.5859375-1.2539062.12890625-.1289062.1875-.2578125.1875-.3867188 0-.1171874-.03515625-.2226562-.12890625-.328125-.3515625-.5039062-.50390625-.8320312-.50390625-1.265625 0-.5039062.24609375-.9492187.73828125-1.3125.22265625-.1757812.3515625-.3632812.3515625-.5742187 0-.0820313-.03515625-.1757813-.08203125-.2578125-.3046875-.5859375-.43359375-.8203125-.43359375-1.21875 0-.5976562.375-1.0195312 1.1484375-1.4296875.1875-.09375.29296875-.24609375.29296875-.43359375 0-.08203125-.0234375-.1640625-.0703125-.24609375-.2578125-.64453125-.29296875-.75-.29296875-1.03125 0-.5390625.38671875-.94921875 1.19531255-1.16015625.65625-.1640625 1.6992187-.234375 2.9648437-.22265625l1.546875.01171875c4.640625.046875 7.8046875 2.671875 7.8046875 6.43359375 0 2.4023438-.5390625 3.9257812-2.0507812 5.953125-1.6757813 2.2382812-3.9960938 4.921875-5.671875 8.2617188-.4335938.8671874-.6679688 1.0195312-1.0195313 1.0195312zm10.2773437-10.0664062h-.9726562c.8320312-1.5703126 1.1835938-3.1875 1.1835938-5.1328126 0-2.0859374-.75-3.89062495-2.0742188-5.2617187h1.453125c1.96875 0 3.6914062 2.34375 3.6914062 5.1679687 0 2.8945313-1.546875 5.2265626-3.28125 5.2265626z" fill="#BABABA"></path></svg>